# xmcd CD database file
#
# Track frame offsets:
#	150
#	16425
#	47100
#	81300
#	134100
#	154200
#	210900
#	237902
#	279077
#
# Disc length: 4647 seconds
#
# Revision: 1
# Processed by: cddbd v1.5.2PL0 Copyright (c) Steve Scherf et al.
# Submitted via: CDex 1.70beta2
#
DISCID=77122509
DTITLE=Abraham - Créateurs d'avant-garde
DYEAR=2007
DGENRE=New Age
TTITLE0=Préface
TTITLE1=Vous créez vraiment votre propre réalité
TTITLE2=Comment réussir à atteindre mes objectifs
TTITLE3=La loi de l'attraction, la plus puissante loi de l'univers
TTITLE4=La valeur cachée de vos réactions émotionnelles
TTITLE5=Les trois étapes pour réussir tout ce que vous voulez Être, faire ou avoir
TTITLE6=Où êtes-vous et où désirez-vous être
TTITLE7=Vous seul pouvez savoir ce que vous éprouvez à votre sujet
TTITLE8=Les divers degrés de votre échelle de guidance émotionnelle
EXTD=YEAR: 2007
EXTT0=
EXTT1=
EXTT2=
EXTT3=
EXTT4=
EXTT5=
EXTT6=
EXTT7=
EXTT8=
PLAYORDER=
